<svg width="44" height="44" viewBox="0 0 44 44" fill="none" xmlns="http://www.w3.org/2000/svg">
<g clip-path="url(#clip0_1_41)">
<path d="M22 38.3167L31.075 29.2417C32.8696 27.4468 34.0918 25.1602 34.5868 22.6708C35.0819 20.1814 34.8277 17.6011 33.8563 15.2562C32.885 12.9113 31.2401 10.9071 29.1297 9.49697C27.0193 8.08689 24.5381 7.33426 22 7.33426C19.4619 7.33426 16.9807 8.08689 14.8703 9.49697C12.7599 10.9071 11.115 12.9113 10.1437 15.2562C9.17232 17.6011 8.9181 20.1814 9.41317 22.6708C9.90824 25.1602 11.1304 27.4468 12.925 29.2417L22 38.3167ZM22 43.5013L10.3327 31.834C8.02513 29.5264 6.45368 26.5864 5.81704 23.3857C5.1804 20.185 5.50716 16.8675 6.75601 13.8525C8.00487 10.8375 10.1197 8.26058 12.8331 6.44755C15.5465 4.63451 18.7366 3.66681 22 3.66681C25.2634 3.66681 28.4535 4.63451 31.1669 6.44755C33.8803 8.26058 35.9951 10.8375 37.244 13.8525C38.4928 16.8675 38.8196 20.185 38.183 23.3857C37.5463 26.5864 35.9749 29.5264 33.6673 31.834L22 43.5013ZM22 23.8333C22.9725 23.8333 23.9051 23.447 24.5927 22.7594C25.2804 22.0718 25.6667 21.1391 25.6667 20.1667C25.6667 19.1942 25.2804 18.2616 24.5927 17.5739C23.9051 16.8863 22.9725 16.5 22 16.5C21.0275 16.5 20.0949 16.8863 19.4073 17.5739C18.7196 18.2616 18.3333 19.1942 18.3333 20.1667C18.3333 21.1391 18.7196 22.0718 19.4073 22.7594C20.0949 23.447 21.0275 23.8333 22 23.8333ZM22 27.5C20.0551 27.5 18.1898 26.7274 16.8146 25.3521C15.4393 23.9768 14.6667 22.1116 14.6667 20.1667C14.6667 18.2217 15.4393 16.3565 16.8146 14.9812C18.1898 13.6059 20.0551 12.8333 22 12.8333C23.9449 12.8333 25.8102 13.6059 27.1855 14.9812C28.5607 16.3565 29.3333 18.2217 29.3333 20.1667C29.3333 22.1116 28.5607 23.9768 27.1855 25.3521C25.8102 26.7274 23.9449 27.5 22 27.5Z" fill="#FB9400"/>
</g>
<defs>
<clipPath id="clip0_1_41">
<rect width="44" height="44" fill="white"/>
</clipPath>
</defs>
</svg>
