<svg width="44" height="44" viewBox="0 0 44 44" fill="none" xmlns="http://www.w3.org/2000/svg">
<g clip-path="url(#clip0_1_38)">
<path d="M36.6667 40.3334H7.33333C6.8471 40.3334 6.38079 40.1402 6.03697 39.7964C5.69315 39.4526 5.5 38.9863 5.5 38.5V5.50002C5.5 5.01379 5.69315 4.54747 6.03697 4.20366C6.38079 3.85984 6.8471 3.66669 7.33333 3.66669H36.6667C37.1529 3.66669 37.6192 3.85984 37.963 4.20366C38.3068 4.54747 38.5 5.01379 38.5 5.50002V38.5C38.5 38.9863 38.3068 39.4526 37.963 39.7964C37.6192 40.1402 37.1529 40.3334 36.6667 40.3334ZM34.8333 36.6667V7.33335H9.16667V36.6667H34.8333ZM16.5 11V14.6667C16.5 16.1254 17.0795 17.5243 18.1109 18.5558C19.1424 19.5872 20.5413 20.1667 22 20.1667C23.4587 20.1667 24.8576 19.5872 25.8891 18.5558C26.9205 17.5243 27.5 16.1254 27.5 14.6667V11H31.1667V14.6667C31.1667 17.0978 30.2009 19.4294 28.4818 21.1485C26.7627 22.8676 24.4312 23.8334 22 23.8334C19.5688 23.8334 17.2373 22.8676 15.5182 21.1485C13.7991 19.4294 12.8333 17.0978 12.8333 14.6667V11H16.5Z" fill="#FB9400"/>
</g>
<defs>
<clipPath id="clip0_1_38">
<rect width="44" height="44" fill="white"/>
</clipPath>
</defs>
</svg>
