<svg width="44" height="44" viewBox="0 0 44 44" fill="none" xmlns="http://www.w3.org/2000/svg">
<g clip-path="url(#clip0_1_35)">
<path d="M7.33334 40.3333C7.33334 36.4435 8.87858 32.7129 11.6291 29.9624C14.3796 27.2119 18.1102 25.6666 22 25.6666C25.8899 25.6666 29.6204 27.2119 32.3709 29.9624C35.1214 32.7129 36.6667 36.4435 36.6667 40.3333H33C33 37.4159 31.8411 34.618 29.7782 32.5551C27.7153 30.4922 24.9174 29.3333 22 29.3333C19.0826 29.3333 16.2847 30.4922 14.2218 32.5551C12.1589 34.618 11 37.4159 11 40.3333H7.33334ZM22 23.8333C15.9225 23.8333 11 18.9108 11 12.8333C11 6.75581 15.9225 1.83331 22 1.83331C28.0775 1.83331 33 6.75581 33 12.8333C33 18.9108 28.0775 23.8333 22 23.8333ZM22 20.1666C26.0517 20.1666 29.3333 16.885 29.3333 12.8333C29.3333 8.78165 26.0517 5.49998 22 5.49998C17.9483 5.49998 14.6667 8.78165 14.6667 12.8333C14.6667 16.885 17.9483 20.1666 22 20.1666Z" fill="#FB9400"/>
</g>
<defs>
<clipPath id="clip0_1_35">
<rect width="44" height="44" fill="white"/>
</clipPath>
</defs>
</svg>
